# xmcd
#
# Track frame offsets:
#	150
#	22472
#	41237
#	62542
#	72160
#	83032
#	105557
#	121077
#
# Disc length: 1894 seconds
#
# Revision: 1
# Processed by: cddbd v1.5.1PL0 Copyright (c) Steve Scherf et al.
# Submitted via: CDex 1.50Beta5
#
DISCID=68076408
DTITLE=The Thrill - 青の6号 ANTARCTICA
DYEAR=1900
DGENRE=Game
TTITLE0=006〜開戦
TTITLE1=サガロ・エステラのテーマ
TTITLE2=Tree of Life〜生命の樹
TTITLE3=青の覚醒
TTITLE4=Blue Bloom
TTITLE5=006〜潜航
TTITLE6=海獣
TTITLE7=青の作戦
EXTD=
EXTT0=
EXTT1=
EXTT2=
EXTT3=
EXTT4=
EXTT5=
EXTT6=
EXTT7=
PLAYORDER=
